HIERARCHY
ROOT root
{
  OFFSET 0 93.2929 0
  CHANNELS 6 Xposition Yposition Zposition Zrotation Xrotation Yrotation
  JOINT torso_1
  {
    OFFSET 0 5.07867 -1.15138
    CHANNELS 6 Xposition Yposition Zposition Zrotation Xrotation Yrotation
    JOINT torso_2
    {
      OFFSET 0 5.61661 1.07143
      CHANNELS 6 Xposition Yposition Zposition Zrotation Xrotation Yrotation
      JOINT torso_3
      {
        OFFSET -1.02604e-17 5.98978 0.11501
        CHANNELS 6 Xposition Yposition Zposition Zrotation Xrotation Yrotation
        JOINT torso_4
        {
          OFFSET -1.10457e-17 6.50583 -0.443523
          CHANNELS 6 Xposition Yposition Zposition Zrotation Xrotation Yrotation
          JOINT torso_5
          {
            OFFSET -1.97295e-17 7.60548 -1.50593
            CHANNELS 6 Xposition Yposition Zposition Zrotation Xrotation Yrotation
            JOINT torso_6
            {
              OFFSET -2.53307e-17 9.49737 -0.914492
              CHANNELS 6 Xposition Yposition Zposition Zrotation Xrotation Yrotation
              JOINT torso_7
              {
                OFFSET -2.90401e-17 10.5513 1.57691
                CHANNELS 6 Xposition Yposition Zposition Zrotation Xrotation Yrotation
                JOINT neck_1
                {
                  OFFSET -1.29193e-17 4.78644 0.715339
                  CHANNELS 6 Xposition Yposition Zposition Zrotation Xrotation Yrotation
                  JOINT neck_2
                  {
                    OFFSET -1.8116e-17 4.82109 0.421791
                    CHANNELS 6 Xposition Yposition Zposition Zrotation Xrotation Yrotation
                    JOINT head
                    {
                      OFFSET -2.00958e-17 4.83041 0.765062
                      CHANNELS 6 Xposition Yposition Zposition Zrotation Xrotation Yrotation
                      End Site
                      {
                        OFFSET 0 0.1 0
                      }
                    }
                  }
                }
                JOINT l_shoulder
                {
                  OFFSET 1.23299 -7.60731 7.53374
                  CHANNELS 6 Xposition Yposition Zposition Zrotation Xrotation Yrotation
                  JOINT l_up_arm
                  {
                    OFFSET 12.9547 3.2495 -3.26872
                    CHANNELS 6 Xposition Yposition Zposition Zrotation Xrotation Yrotation
                    JOINT l_low_arm
                    {
                      OFFSET 29.2081 0.0598081 0.137039
                      CHANNELS 6 Xposition Yposition Zposition Zrotation Xrotation Yrotation
                      JOINT l_hand
                      {
                        OFFSET 24.234 0.0496219 0.113701
                        CHANNELS 6 Xposition Yposition Zposition Zrotation Xrotation Yrotation
                        End Site
                        {
                          OFFSET 0.1 0 0
                        }
                      }
                    }
                  }
                }
                JOINT r_shoulder
                {
                  OFFSET -1.23299 -7.60729 7.53365
                  CHANNELS 6 Xposition Yposition Zposition Zrotation Xrotation Yrotation
                  JOINT r_up_arm
                  {
                    OFFSET -12.9547 3.2495 -3.26872
                    CHANNELS 6 Xposition Yposition Zposition Zrotation Xrotation Yrotation
                    JOINT r_low_arm
                    {
                      OFFSET -29.2081 0.0598081 0.137039
                      CHANNELS 6 Xposition Yposition Zposition Zrotation Xrotation Yrotation
                      JOINT r_hand
                      {
                        OFFSET -24.234 0.0496218 0.113702
                        CHANNELS 6 Xposition Yposition Zposition Zrotation Xrotation Yrotation
                        End Site
                        {
                          OFFSET -0.1 0 0
                        }
                      }
                    }
                  }
                }
              }
            }
          }
        }
      }
    }
  }
  JOINT l_up_leg
  {
    OFFSET 9.23673 -4.20556 2.0327
    CHANNELS 6 Xposition Yposition Zposition Zrotation Xrotation Yrotation
    JOINT l_low_leg
    {
      OFFSET -0.852353 -38.7721 -0.655187
      CHANNELS 6 Xposition Yposition Zposition Zrotation Xrotation Yrotation
      JOINT l_foot
      {
        OFFSET -2.32622 -40.4017 -6.04875
        CHANNELS 6 Xposition Yposition Zposition Zrotation Xrotation Yrotation
        JOINT l_toes
        {
          OFFSET 0.779096 -9.8844 12.4959
          CHANNELS 6 Xposition Yposition Zposition Zrotation Xrotation Yrotation
          End Site
          {
            OFFSET 0 0 0.1
          }
        }
      }
    }
  }
  JOINT r_up_leg
  {
    OFFSET -9.23673 -4.20556 2.0327
    CHANNELS 6 Xposition Yposition Zposition Zrotation Xrotation Yrotation
    JOINT r_low_leg
    {
      OFFSET 0.852353 -38.7721 -0.655187
      CHANNELS 6 Xposition Yposition Zposition Zrotation Xrotation Yrotation
      JOINT r_foot
      {
        OFFSET 2.32622 -40.4017 -6.04875
        CHANNELS 6 Xposition Yposition Zposition Zrotation Xrotation Yrotation
        JOINT r_toes
        {
          OFFSET -0.779096 -9.8844 12.4959
          CHANNELS 6 Xposition Yposition Zposition Zrotation Xrotation Yrotation
          End Site
          {
            OFFSET 0 0 0.1
          }
        }
      }
    }
  }
}
MOTION
Frames: 7
Frame Time: 0.016667
0 93.2929 0 -0 0 -0 0 5.07867 -1.15138 -0 0 -0 0 5.61661 1.07143 -0 0 -0 -1.02604e-17 5.98978 0.11501 -0 0 -0 -1.10457e-17 6.50583 -0.443523 -0 0 -0 -1.97295e-17 7.60548 -1.50593 -0 0 -0 -2.53307e-17 9.49737 -0.914492 -0 0 -0 -2.90401e-17 10.5513 1.57691 -0 0 -0 -1.29193e-17 4.78644 0.715339 -0 0 -0 -1.8116e-17 4.82109 0.421791 -0 0 -0 -2.00958e-17 4.83041 0.765062 -0 0 -0 1.23299 -7.60731 7.53374 -0 0 -0 12.9547 3.2495 -3.26872 -0 0 -0 29.2081 0.0598081 0.137039 -0 0 -0 24.234 0.0496219 0.113701 -0 0 -0 -1.23299 -7.60729 7.53365 -0 0 -0 -12.9547 3.2495 -3.26872 -0 0 -0 -29.2081 0.0598081 0.137039 -0 0 -0 -24.234 0.0496218 0.113702 -0 0 -0 9.23673 -4.20556 2.0327 -0 0 -0 -0.852353 -38.7721 -0.655187 -0 0 -0 -2.32622 -40.4017 -6.04875 -0 0 -0 0.779096 -9.8844 12.4959 -0 0 -0 -9.23673 -4.20556 2.0327 -0 0 -0 0.852353 -38.7721 -0.655187 -0 0 -0 2.32622 -40.4017 -6.04875 -0 0 -0 -0.779096 -9.8844 12.4959 -0 0 -0 
7.4313 90.9563 59.4296 8.94094 -8.28292 2.63066 0 5.07867 -1.15138 -3.68649 5.24043 0.0376659 0 5.61661 1.07143 -2.79514 3.64672 -0.452999 -1.02604e-17 5.98978 0.11501 -2.03872 2.27133 -0.38325 -1.10457e-17 6.50583 -0.443523 -1.21945 -0.643297 -0.447737 -1.97295e-17 7.60548 -1.50593 -0.440004 -2.08448 -0.35691 -2.53307e-17 9.49737 -0.914492 0.255987 -3.99558 -0.736724 -2.90401e-17 10.5513 1.57691 -0.0262925 1.09589 -0.0864487 -1.29193e-17 4.78644 0.715339 0.611414 8.5824 -1.7801 -1.8116e-17 4.82109 0.421791 0.144376 -2.98673 -1.04819 -2.00958e-17 4.83041 0.765062 -0.157448 -5.31452 1.87463 1.23299 -7.60731 7.53374 19.0288 5.33486 2.52865 12.9547 3.2495 -3.26872 -93.8821 27.0666 8.10947 29.2081 0.0598081 0.137039 3.91981 -0.643283 -19.2248 24.234 0.0496219 0.113701 -4.87682 -31.5808 -0.00610482 -1.23299 -7.60729 7.53365 -12.2139 4.02624 -1.81398 -12.9547 3.2495 -3.26872 93.6228 15.144 -3.74586 -29.2081 0.0598081 0.137039 -3.06331 -0.384991 14.9179 -24.234 0.0496218 0.113702 3.37884 -15.0667 2.11843 9.23673 -4.20556 2.0327 -9.01928 3.1791 -12.428 -0.852353 -38.7721 -0.655187 -1.12012 4.18269 -0.0321312 -2.32622 -40.4017 -6.04875 1.21789 -1.33729 14.989 0.779096 -9.8844 12.4959 4.22417e-16 -7.82715e-16 2.88531e-33 -9.23673 -4.20556 2.0327 -8.90976 -10.0605 18.5202 0.852353 -38.7721 -0.655187 4.2618 15.6415 -0.310702 2.32622 -40.4017 -6.04875 -0.539431 -5.13492 -15.2052 -0.779096 -9.8844 12.4959 -1.76828e-15 -5.1036e-16 -1.2698e-14 
7.473 90.9571 59.4754 8.94278 -8.23978 2.67881 0 5.07867 -1.15138 -3.6793 5.24909 0.0531095 0 5.61661 1.07143 -2.79578 3.64736 -0.435002 -1.02604e-17 5.98978 0.11501 -2.04238 2.26793 -0.364249 -1.10457e-17 6.50583 -0.443523 -1.22651 -0.655206 -0.427579 -1.97295e-17 7.60548 -1.50593 -0.4454 -2.09864 -0.335232 -2.53307e-17 9.49737 -0.914492 0.256194 -4.01101 -0.713499 -2.90401e-17 10.5513 1.57691 -0.0261028 1.10121 -0.0853401 -1.29193e-17 4.78644 0.715339 0.61393 8.58013 -1.88774 -1.8116e-17 4.82109 0.421791 0.15043 -2.97376 -1.09595 -2.00958e-17 4.83041 0.765062 -0.162395 -5.31265 1.81586 1.23299 -7.60731 7.53374 18.8811 5.3177 2.5219 12.9547 3.2495 -3.26872 -93.7335 26.8859 8.00573 29.2081 0.0598081 0.137039 3.87958 -0.629567 -19.0204 24.234 0.0496219 0.113701 -5.01458 -31.2403 -0.154128 -1.23299 -7.60729 7.53365 -12.1742 4.03832 -1.8368 -12.9547 3.2495 -3.26872 93.588 15.1294 -3.81488 -29.2081 0.0598081 0.137039 -3.07722 -0.388629 14.9871 -24.234 0.0496218 0.113702 3.38723 -15.1786 2.10629 9.23673 -4.20556 2.0327 -9.0371 3.15282 -12.4867 -0.852353 -38.7721 -0.655187 -1.12084 4.18537 -0.0321255 -2.32622 -40.4017 -6.04875 1.22745 -1.34866 14.9886 0.779096 -9.8844 12.4959 4.22417e-16 -7.82715e-16 2.88531e-33 -9.23673 -4.20556 2.0327 -8.94538 -10.1273 18.449 0.852353 -38.7721 -0.655187 4.27823 15.6993 -0.31413 2.32622 -40.4017 -6.04875 -0.539553 -5.12918 -15.2068 -0.779096 -9.8844 12.4959 -1.01472e-15 -5.45683e-16 -1.27216e-14 
7.51244 90.9584 59.5215 8.95311 -8.20267 2.7132 0 5.07867 -1.15138 -3.68107 5.2812 0.0654857 0 5.61661 1.07143 -2.80259 3.66048 -0.419758 -1.02604e-17 5.98978 0.11501 -2.05052 2.26258 -0.348469 -1.10457e-17 6.50583 -0.443523 -1.23511 -0.692754 -0.412 -1.97295e-17 7.60548 -1.50593 -0.45063 -2.14529 -0.31848 -2.53307e-17 9.49737 -0.914492 0.256362 -4.08074 -0.695833 -2.90401e-17 10.5513 1.57691 -0.0244249 1.10799 -0.0868448 -1.29193e-17 4.78644 0.715339 0.629071 8.66635 -1.964 -1.8116e-17 4.82109 0.421791 0.168369 -2.95823 -1.12926 -2.00958e-17 4.83041 0.765062 -0.179685 -5.33892 1.76406 1.23299 -7.60731 7.53374 18.9842 5.33777 2.52371 12.9547 3.2495 -3.26872 -93.8081 26.8916 8.02056 29.2081 0.0598081 0.137039 3.85703 -0.621951 -18.9059 24.234 0.0496219 0.113701 -5.15997 -31.0729 -0.280621 -1.23299 -7.60729 7.53365 -12.4245 4.05162 -1.90403 -12.9547 3.2495 -3.26872 93.7737 15.2105 -3.94182 -29.2081 0.0598081 0.137039 -3.09582 -0.393521 15.0797 -24.234 0.0496218 0.113702 3.49374 -15.2915 2.05715 9.23673 -4.20556 2.0327 -9.06566 3.13976 -12.5168 -0.852353 -38.7721 -0.655187 -1.11699 4.17102 -0.0321554 -2.32622 -40.4017 -6.04875 1.27136 -1.33557 14.9812 0.779096 -9.8844 12.4959 -3.51925e-16 -8.06913e-16 2.41982e-17 -9.23673 -4.20556 2.0327 -8.98704 -10.167 18.3776 0.852353 -38.7721 -0.655187 4.28326 15.7169 -0.315182 2.32622 -40.4017 -6.04875 -0.543232 -5.13121 -15.2089 -0.779096 -9.8844 12.4959 9.41932e-16 -6.31352e-16 -1.28069e-14 
7.55221 90.9597 59.5675 8.95531 -8.16015 2.76097 0 5.07867 -1.15138 -3.69016 5.32398 0.0717427 0 5.61661 1.07143 -2.8142 3.68102 -0.411153 -1.02604e-17 5.98978 0.11501 -2.0625 2.2603 -0.340273 -1.10457e-17 6.50583 -0.443523 -1.24584 -0.734334 -0.40478 -1.97295e-17 7.60548 -1.50593 -0.45834 -2.19742 -0.310346 -2.53307e-17 9.49737 -0.914492 0.252526 -4.16219 -0.685493 -2.90401e-17 10.5513 1.57691 -0.0228324 1.11328 -0.0909452 -1.29193e-17 4.78644 0.715339 0.652094 8.80276 -2.01248 -1.8116e-17 4.82109 0.421791 0.192167 -2.96248 -1.14914 -2.00958e-17 4.83041 0.765062 -0.180116 -5.37539 1.71866 1.23299 -7.60731 7.53374 19.1755 5.36416 2.52195 12.9547 3.2495 -3.26872 -93.9561 26.9341 8.09174 29.2081 0.0598081 0.137039 3.84883 -0.619194 -18.8643 24.234 0.0496219 0.113701 -5.27493 -30.9514 -0.376472 -1.23299 -7.60729 7.53365 -12.8614 4.05578 -1.99985 -12.9547 3.2495 -3.26872 94.1313 15.4064 -4.11488 -29.2081 0.0598081 0.137039 -3.12209 -0.400488 15.2105 -24.234 0.0496218 0.113702 3.65495 -15.4663 2.00228 9.23673 -4.20556 2.0327 -9.0874 3.12763 -12.5567 -0.852353 -38.7721 -0.655187 -1.1104 4.14642 -0.0322043 -2.32622 -40.4017 -6.04875 1.31042 -1.32639 14.9758 0.779096 -9.8844 12.4959 1.44498e-17 -7.95464e-16 1.2749e-17 -9.23673 -4.20556 2.0327 -9.02358 -10.2031 18.3031 0.852353 -38.7721 -0.655187 4.28512 15.7235 -0.315572 2.32622 -40.4017 -6.04875 -0.54785 -5.12931 -15.2096 -0.779096 -9.8844 12.4959 -5.54761e-16 -5.61032e-16 -1.27487e-14 
7.59029 90.9618 59.6137 8.94872 -8.12967 2.79968 0 5.07867 -1.15138 -3.6936 5.37114 0.0730053 0 5.61661 1.07143 -2.81932 3.70739 -0.408242 -1.02604e-17 5.98978 0.11501 -2.06912 2.26673 -0.338247 -1.10457e-17 6.50583 -0.443523 -1.25259 -0.76307 -0.403657 -1.97295e-17 7.60548 -1.50593 -0.464938 -2.23632 -0.308982 -2.53307e-17 9.49737 -0.914492 0.246359 -4.22208 -0.681459 -2.90401e-17 10.5513 1.57691 -0.022403 1.11696 -0.0946581 -1.29193e-17 4.78644 0.715339 0.668055 8.90653 -2.02013 -1.8116e-17 4.82109 0.421791 0.203751 -2.97099 -1.15087 -2.00958e-17 4.83041 0.765062 -0.174424 -5.41015 1.6737 1.23299 -7.60731 7.53374 19.3081 5.38576 2.50804 12.9547 3.2495 -3.26872 -94.0686 26.9546 8.17382 29.2081 0.0598081 0.137039 3.85486 -0.621221 -18.8949 24.234 0.0496219 0.113701 -5.35796 -30.8694 -0.438814 -1.23299 -7.60729 7.53365 -13.2183 4.06454 -2.0676 -12.9547 3.2495 -3.26872 94.4385 15.6321 -4.27026 -29.2081 0.0598081 0.137039 -3.14805 -0.407434 15.3399 -24.234 0.0496218 0.113702 3.77517 -15.6556 1.98609 9.23673 -4.20556 2.0327 -9.09702 3.12634 -12.608 -0.852353 -38.7721 -0.655187 -1.10495 4.12609 -0.0322427 -2.32622 -40.4017 -6.04875 1.32336 -1.32772 14.9746 0.779096 -9.8844 12.4959 -3.62323e-16 -8.07238e-16 2.45231e-17 -9.23673 -4.20556 2.0327 -9.04945 -10.2297 18.2313 0.852353 -38.7721 -0.655187 4.28697 15.73 -0.31596 2.32622 -40.4017 -6.04875 -0.537351 -5.12104 -15.2105 -0.779096 -9.8844 12.4959 -5.96354e-16 -5.59082e-16 -1.27471e-14 
7.62701 90.9638 59.6592 8.93926 -8.1026 2.83193 0 5.07867 -1.15138 -3.68354 5.41982 0.0707435 0 5.61661 1.07143 -2.81328 3.73607 -0.407006 -1.02604e-17 5.98978 0.11501 -2.06795 2.27576 -0.337811 -1.10457e-17 6.50583 -0.443523 -1.25451 -0.786239 -0.40387 -1.97295e-17 7.60548 -1.50593 -0.47025 -2.26913 -0.309901 -2.53307e-17 9.49737 -0.914492 0.238162 -4.27446 -0.677767 -2.90401e-17 10.5513 1.57691 -0.0220009 1.11934 -0.0975596 -1.29193e-17 4.78644 0.715339 0.682768 8.98193 -2.02719 -1.8116e-17 4.82109 0.421791 0.208432 -2.96013 -1.15241 -2.00958e-17 4.83041 0.765062 -0.191007 -5.45536 1.64816 1.23299 -7.60731 7.53374 19.4052 5.40253 2.48285 12.9547 3.2495 -3.26872 -94.1962 26.9693 8.25535 29.2081 0.0598081 0.137039 3.87024 -0.626406 -18.973 24.234 0.0496219 0.113701 -5.39974 -30.8196 -0.451765 -1.23299 -7.60729 7.53365 -13.6123 4.07809 -2.1199 -12.9547 3.2495 -3.26872 94.6629 15.9062 -4.44457 -29.2081 0.0598081 0.137039 -3.18013 -0.416104 15.4998 -24.234 0.0496218 0.113702 3.97469 -15.9168 2.00686 9.23673 -4.20556 2.0327 -9.10287 3.1281 -12.6567 -0.852353 -38.7721 -0.655187 -1.09984 4.10704 -0.0322768 -2.32622 -40.4017 -6.04875 1.33928 -1.33188 14.973 0.779096 -9.8844 12.4959 -3.72721e-16 -8.07563e-16 2.48481e-17 -9.23673 -4.20556 2.0327 -9.07058 -10.2497 18.163 0.852353 -38.7721 -0.655187 4.28651 15.7284 -0.315863 2.32622 -40.4017 -6.04875 -0.530094 -5.11289 -15.2115 -0.779096 -9.8844 12.4959 5.65159e-16 -6.19577e-16 -1.27955e-14 
